<svg width="48" height="49" viewBox="0 0 48 49" fill="none" xmlns="http://www.w3.org/2000/svg">
<path d="M30 24.5C30 25.6867 29.6481 26.8467 28.9888 27.8334C28.3295 28.8201 27.3925 29.5892 26.2961 30.0433C25.1997 30.4974 23.9933 30.6162 22.8295 30.3847C21.6656 30.1532 20.5965 29.5818 19.7574 28.7426C18.9182 27.9035 18.3468 26.8344 18.1153 25.6705C17.8838 24.5067 18.0026 23.3003 18.4567 22.2039C18.9108 21.1075 19.6799 20.1705 20.6666 19.5112C21.6533 18.8519 22.8133 18.5 24 18.5C25.5907 18.5018 27.1158 19.1346 28.2406 20.2594C29.3654 21.3842 29.9982 22.9093 30 24.5ZM42.75 16.25V32.75C42.7468 35.5338 41.6396 38.2027 39.6711 40.1711C37.7027 42.1396 35.0338 43.2468 32.25 43.25H15.75C12.9662 43.2468 10.2973 42.1396 8.32889 40.1711C6.36044 38.2027 5.25318 35.5338 5.25 32.75V16.25C5.25318 13.4662 6.36044 10.7973 8.32889 8.82889C10.2973 6.86044 12.9662 5.75318 15.75 5.75H32.25C35.0338 5.75318 37.7027 6.86044 39.6711 8.82889C41.6396 10.7973 42.7468 13.4662 42.75 16.25ZM33 24.5C33 22.72 32.4722 20.9799 31.4832 19.4999C30.4943 18.0198 29.0887 16.8663 27.4442 16.1851C25.7996 15.5039 23.99 15.3257 22.2442 15.6729C20.4984 16.0202 18.8947 16.8774 17.636 18.136C16.3774 19.3947 15.5202 20.9984 15.1729 22.7442C14.8257 24.49 15.0039 26.2996 15.6851 27.9442C16.3663 29.5887 17.5198 30.9943 18.9999 31.9832C20.4799 32.9722 22.22 33.5 24 33.5C26.3861 33.4973 28.6738 32.5482 30.361 30.861C32.0482 29.1738 32.9973 26.8861 33 24.5ZM36 14.75C36 14.305 35.868 13.87 35.6208 13.5C35.3736 13.13 35.0222 12.8416 34.611 12.6713C34.1999 12.501 33.7475 12.4564 33.311 12.5432C32.8746 12.63 32.4737 12.8443 32.159 13.159C31.8443 13.4737 31.63 13.8746 31.5432 14.311C31.4564 14.7475 31.501 15.1999 31.6713 15.611C31.8416 16.0222 32.13 16.3736 32.5 16.6208C32.87 16.868 33.305 17 33.75 17C34.3467 17 34.919 16.7629 35.341 16.341C35.7629 15.919 36 15.3467 36 14.75Z" fill="#25282B"/>
</svg>
