<svg width="38" height="39" viewBox="0 0 38 39" fill="none" xmlns="http://www.w3.org/2000/svg">
<path d="M0 3.22175C0 1.71837 1.24925 0.5 2.79062 0.5H35.2094C36.7507 0.5 38 1.71837 38 3.22175V35.7783C38 37.2816 36.7507 38.5 35.2094 38.5H2.79062C1.24925 38.5 0 37.2816 0 35.7783V3.22175ZM11.7396 32.3108V15.1514H6.03725V32.3108H11.7396ZM8.88963 12.8073C10.8775 12.8073 12.1149 11.4915 12.1149 9.84325C12.0792 8.15938 10.8799 6.87925 8.92762 6.87925C6.97538 6.87925 5.7 8.16175 5.7 9.84325C5.7 11.4915 6.93738 12.8073 8.85163 12.8073H8.88963ZM20.5461 32.3108V22.7276C20.5461 22.2146 20.5841 21.7016 20.7361 21.3359C21.147 20.3123 22.0851 19.2506 23.6621 19.2506C25.726 19.2506 26.5501 20.8229 26.5501 23.1314V32.3108H32.2525V22.4688C32.2525 17.1962 29.4405 14.7453 25.688 14.7453C22.6623 14.7453 21.3061 16.4078 20.5461 17.5786V17.638H20.5081C20.5207 17.6182 20.5334 17.5984 20.5461 17.5786V15.1514H14.8461C14.9174 16.7616 14.8461 32.3108 14.8461 32.3108H20.5461Z" fill="#25282B"/>
</svg>
